<mxfile host="app.diagrams.net" agent="Mozilla/5.0 (Macintosh; Intel Mac OS X 10_15_7) AppleWebKit/605.1.15 (KHTML, like Gecko) Version/18.0 Safari/605.1.15" version="24.7.16">
  <diagram name="V2" id="JdJNyMPgvPt6DuGMdEDs">
    <mxGraphModel dx="984" dy="576" grid="1" gridSize="10" guides="1" tooltips="1" connect="1" arrows="1" fold="1" page="1" pageScale="1" pageWidth="827" pageHeight="1169" math="0" shadow="0">
      <root>
        <mxCell id="0" />
        <mxCell id="1" parent="0" />
        <mxCell id="fmA28Pe4JxBRFQuRQf34-3" style="edgeStyle=orthogonalEdgeStyle;rounded=0;orthogonalLoop=1;jettySize=auto;html=1;entryX=0;entryY=0.5;entryDx=0;entryDy=0;" edge="1" parent="1" source="fmA28Pe4JxBRFQuRQf34-1" target="fmA28Pe4JxBRFQuRQf34-2">
          <mxGeometry relative="1" as="geometry" />
        </mxCell>
        <mxCell id="fmA28Pe4JxBRFQuRQf34-1" value="&lt;b&gt;Research Agent&lt;/b&gt;&lt;div&gt;&quot;Pesquisador&quot;&lt;br&gt;&lt;div&gt;Busca na internet sobre o destino&lt;/div&gt;&lt;/div&gt;" style="rounded=1;whiteSpace=wrap;html=1;" vertex="1" parent="1">
          <mxGeometry x="140" y="140" width="150" height="60" as="geometry" />
        </mxCell>
        <mxCell id="fmA28Pe4JxBRFQuRQf34-2" value="&lt;b&gt;Supervisor Agent&lt;/b&gt;&lt;div&gt;&quot;Agencia de viagens&quot;&lt;/div&gt;&lt;div&gt;Recebe os dados da busca na internet e monta um roteiro&lt;/div&gt;" style="rounded=1;whiteSpace=wrap;html=1;" vertex="1" parent="1">
          <mxGeometry x="350" y="130" width="160" height="80" as="geometry" />
        </mxCell>
      </root>
    </mxGraphModel>
  </diagram>
</mxfile>
